<?xml version="1.0" encoding="UTF-8"?>
<svg width="126px" height="99px" viewBox="0 0 126 99" version="1.1" xmlns="http://www.w3.org/2000/svg" xmlns:xlink="http://www.w3.org/1999/xlink">
    <!-- Generator: Sketch 47.1 (45422) - http://www.bohemiancoding.com/sketch -->
    <title>car 2</title>
    <desc>Created with Sketch.</desc>
    <defs></defs>
    <g id="Page-1" stroke="none" stroke-width="1" fill="none" fill-rule="evenodd">
        <g id="Desktop-HD" transform="translate(-804.000000, -695.000000)">
            <g id="car-2" transform="translate(804.000000, 695.000000)">
                <path d="M14.3959091,99 L8.60409091,99 C6.06113636,99 4,96.9388636 4,94.3959091 L4,73.6040909 C4,71.0611364 6.06113636,69 8.60409091,69 L14.3959091,69 C16.9386364,69 19,71.0611364 19,73.6040909 L19,94.3959091 C19,96.9388636 16.9386364,99 14.3959091,99" id="Fill-1" fill="#3D3B3F"></path>
                <path d="M117.395909,99 L111.604091,99 C109.061136,99 107,96.9388636 107,94.3959091 L107,73.6040909 C107,71.0611364 109.061136,69 111.604091,69 L117.395909,69 C119.938636,69 122,71.0611364 122,73.6040909 L122,94.3959091 C122,96.9388636 119.938636,99 117.395909,99" id="Fill-3" fill="#3D3B3F"></path>
                <path d="M22.4241796,50.1011673 L103.57582,50.1011673 L97.1915529,13.8737354 L97.179122,13.7717276 C96.7675473,10.423751 94.2748194,7.89883268 91.3811394,7.89883268 L34.6188606,7.89883268 C31.7249546,7.89883268 29.2324527,10.423751 28.820878,13.7717276 L28.7905919,13.9748405 L22.4241796,50.1011673 Z M113,58 L13,58 L20.9831031,12.7001946 C21.9258148,5.45222568 27.7694526,0 34.6188606,0 L91.3811394,0 C98.2303214,0 104.074185,5.45222568 105.016897,12.7001946 L113,58 Z" id="Fill-5" fill="#352384"></path>
                <path d="M126,84 L0,84 L0,52.9135326 C0,47.4384728 4.481775,43 10.010025,43 L115.989975,43 C121.518225,43 126,47.4384728 126,52.9135326 L126,84 Z" id="Fill-7" fill="#352384"></path>
                <path d="M19,56 C19,59.8660656 15.8660656,63 12,63 C8.13393443,63 5,59.8660656 5,56 C5,52.1339344 8.13393443,49 12,49 C15.8660656,49 19,52.1339344 19,56" id="Fill-9" fill="#F2F2F2"></path>
                <path d="M120,56 C120,59.8660656 116.866066,63 113,63 C109.133934,63 106,59.8660656 106,56 C106,52.1339344 109.133934,49 113,49 C116.866066,49 120,52.1339344 120,56" id="Fill-11" fill="#F2F2F2"></path>
            </g>
        </g>
    </g>
</svg>