<?xml version="1.0" encoding="utf-8"?>
<!-- Generator: Adobe Illustrator 18.0.0, SVG Export Plug-In . SVG Version: 6.00 Build 0)  -->
<!DOCTYPE svg PUBLIC "-//W3C//DTD SVG 1.1//EN" "http://www.w3.org/Graphics/SVG/1.1/DTD/svg11.dtd">
<svg version="1.1" id="Layer_1" xmlns="http://www.w3.org/2000/svg" xmlns:xlink="http://www.w3.org/1999/xlink" x="0px" y="0px"
	 viewBox="0 0 489.9 53.1" enable-background="new 0 0 489.9 53.1" xml:space="preserve">
<g>
	<g>
		<g>
			<defs>
				<path id="SVGID_1_" d="M28.1,34.4c-3.1-0.8-7.2-1.6-12.4-1.6c-7.7,0-12,3.4-12,8.5v0.1c0,5.3,5,8.4,10.6,8.4
					c7.4,0,13.8-4.6,13.8-11.2V34.4z M28.1,52.2v-6.1c-2.5,3.5-7,6.9-14,6.9C7.3,53.1,0,49.2,0,41.6v-0.1c0-7.6,6.5-11.9,16-11.9
					c5.1,0,8.6,0.6,12.1,1.6v-1.6c0-7.4-4.5-11.2-12-11.2c-4.4,0-8.1,1.2-11.5,2.9l-1.3-3.1c4-1.9,7.9-3.1,13-3.1
					c9.4,0,15.2,4.9,15.2,14.3v22.7H28.1z"/>
			</defs>
			<clipPath id="SVGID_2_">
				<use xlink:href="#SVGID_1_"  overflow="visible"/>
			</clipPath>
			<rect x="-5" y="10.2" clip-path="url(#SVGID_2_)" fill="#FFFFFF" width="41.5" height="47.9"/>
		</g>
	</g>
	<g>
		<g>
			<defs>
				<path id="SVGID_3_" d="M74.5,53.1c-10.5,0-18.6-8.7-18.6-19V34c0-10.2,8.2-19.1,18.6-19.1c6.9,0,11.2,3.1,14.6,6.7l-2.5,2.6
					c-3.1-3.2-6.7-6-12.2-6c-8.3,0-14.7,6.9-14.7,15.7V34c0,8.8,6.7,15.8,15,15.8c5.2,0,9.2-2.6,12.2-6.1l2.4,2.1
					C85.7,50.1,81.2,53.1,74.5,53.1"/>
			</defs>
			<clipPath id="SVGID_4_">
				<use xlink:href="#SVGID_3_"  overflow="visible"/>
			</clipPath>
			<rect x="50.9" y="9.9" clip-path="url(#SVGID_4_)" fill="#FFFFFF" width="43.5" height="48.2"/>
		</g>
	</g>
	<g>
		<g>
			<defs>
				<path id="SVGID_5_" d="M128.6,53.1c-10.5,0-18.6-8.7-18.6-19V34c0-10.2,8.2-19.1,18.6-19.1c6.9,0,11.2,3.1,14.6,6.7l-2.5,2.6
					c-3.1-3.2-6.7-6-12.2-6c-8.3,0-14.7,6.9-14.7,15.7V34c0,8.8,6.7,15.8,15,15.8c5.2,0,9.2-2.6,12.2-6.1l2.4,2.1
					C139.8,50.1,135.3,53.1,128.6,53.1"/>
			</defs>
			<clipPath id="SVGID_6_">
				<use xlink:href="#SVGID_5_"  overflow="visible"/>
			</clipPath>
			<rect x="105" y="9.9" clip-path="url(#SVGID_6_)" fill="#FFFFFF" width="43.5" height="48.2"/>
		</g>
	</g>
	<g>
		<g>
			<defs>
				<path id="SVGID_7_" d="M194.3,31.7c-0.6-6.7-4.4-12.6-11.8-12.6c-6.4,0-11.3,5.4-12,12.6H194.3z M183.5,48.3
					c5.1,0,8.7-2.1,11.7-5.2l3.4,3.1c-3.7,4.1-8.2,6.9-15.2,6.9c-10.2,0-18.5-7.8-18.5-19.3c0-10.7,7.5-19.3,17.7-19.3
					c11,0,17.2,8.7,17.2,19.6c0,0.5,0,1.1-0.1,1.7h-29.3C171.3,43.8,177,48.3,183.5,48.3z"/>
			</defs>
			<clipPath id="SVGID_8_">
				<use xlink:href="#SVGID_7_"  overflow="visible"/>
			</clipPath>
			<rect x="159.9" y="9.5" clip-path="url(#SVGID_8_)" fill="#FFFFFF" width="45" height="48.6"/>
		</g>
	</g>
	<g>
		<g>
			<defs>
				<rect id="SVGID_9_" x="224.4" y="0" width="5.5" height="52.2"/>
			</defs>
			<clipPath id="SVGID_10_">
				<use xlink:href="#SVGID_9_"  overflow="visible"/>
			</clipPath>
			<rect x="219.4" y="-5" clip-path="url(#SVGID_10_)" fill="#FFFFFF" width="15.5" height="62.2"/>
		</g>
	</g>
	<g>
		<g>
			<defs>
				<path id="SVGID_11_" d="M284.1,31.7c-0.6-6.7-4.4-12.6-11.8-12.6c-6.4,0-11.3,5.4-12,12.6H284.1z M273.3,48.3
					c5.1,0,8.7-2.1,11.7-5.2l3.4,3.1c-3.7,4.1-8.2,6.9-15.2,6.9c-10.2,0-18.5-7.8-18.5-19.3c0-10.7,7.5-19.3,17.7-19.3
					c11,0,17.2,8.7,17.2,19.6c0,0.5,0,1.1-0.1,1.7h-29.3C261.1,43.8,266.8,48.3,273.3,48.3z"/>
			</defs>
			<clipPath id="SVGID_12_">
				<use xlink:href="#SVGID_11_"  overflow="visible"/>
			</clipPath>
			<rect x="249.7" y="9.5" clip-path="url(#SVGID_12_)" fill="#FFFFFF" width="45" height="48.6"/>
		</g>
	</g>
	<g>
		<g>
			<defs>
				<path id="SVGID_13_" d="M321.6,52.2H313V14.5h8.7V23c2.4-5.7,6.7-9.5,13.4-9.2v9.2h-0.5c-7.6,0-12.9,4.9-12.9,15V52.2"/>
			</defs>
			<clipPath id="SVGID_14_">
				<use xlink:href="#SVGID_13_"  overflow="visible"/>
			</clipPath>
			<rect x="308" y="8.7" clip-path="url(#SVGID_14_)" fill="#FFFFFF" width="32" height="48.5"/>
		</g>
	</g>
	<g>
		<g>
			<defs>
				<path id="SVGID_15_" d="M378.4,36.2c-2.2-0.9-5.3-1.5-8.7-1.5c-5.4,0-8.7,2.2-8.7,6.1v0.1c0,3.6,3.2,5.6,7.3,5.6
					c5.7,0,10-3.2,10-7.9V36.2z M378.2,52.2v-4.6c-2.6,3.1-6.5,5.4-12.2,5.4c-7.2,0-13.5-4.1-13.5-11.7v-0.1
					c0-8.2,6.5-12.2,15.3-12.2c4.6,0,7.5,0.6,10.5,1.6v-0.9c0-5.2-3.3-8.1-9.3-8.1c-4.2,0-7.4,0.9-10.8,2.4l-2.4-6.9
					c4.2-1.9,8.2-3.1,14.4-3.1c11.2,0,16.6,5.9,16.6,16v22.4H378.2z"/>
			</defs>
			<clipPath id="SVGID_16_">
				<use xlink:href="#SVGID_15_"  overflow="visible"/>
			</clipPath>
			<rect x="347.5" y="8.9" clip-path="url(#SVGID_16_)" fill="#FFFFFF" width="44.3" height="49.1"/>
		</g>
	</g>
	<g>
		<g>
			<defs>
				<path id="SVGID_17_" d="M421.5,40.4c0,3.4,1.7,4.7,4.7,4.7c1.9,0,3.6-0.4,5.4-1.3v7.1c-2.1,1.2-4.6,1.9-7.8,1.9
					c-6.4,0-10.9-2.8-10.9-11.1V21.9H408v-7.4h4.8V4.1h8.7v10.4h10.2v7.4h-10.2V40.4"/>
			</defs>
			<clipPath id="SVGID_18_">
				<use xlink:href="#SVGID_17_"  overflow="visible"/>
			</clipPath>
			<rect x="403" y="-0.9" clip-path="url(#SVGID_18_)" fill="#FFFFFF" width="33.6" height="58.8"/>
		</g>
	</g>
	<g>
		<g>
			<defs>
				<path id="SVGID_19_" d="M471.2,21.9c-4.5,0-7.4,3.2-8.3,8.2h16.4C478.7,25.2,475.8,21.9,471.2,21.9z M489.8,36.8h-26.7
					c1.1,4.9,4.5,7.5,9.4,7.5c3.6,0,6.3-1.1,9.3-3.9l6.2,5.5c-3.6,4.4-8.7,7.2-15.7,7.2c-11.5,0-20-8.1-20-19.8v-0.1
					c0-10.9,7.8-20,19-20c12.8,0,18.7,9.9,18.7,20.8v0.1C489.9,35.2,489.8,35.8,489.8,36.8z"/>
			</defs>
			<clipPath id="SVGID_20_">
				<use xlink:href="#SVGID_19_"  overflow="visible"/>
			</clipPath>
			<rect x="447.3" y="8.2" clip-path="url(#SVGID_20_)" fill="#FFFFFF" width="47.6" height="49.9"/>
		</g>
	</g>
</g>
</svg>
