<?xml version="1.0" encoding="UTF-8" standalone="no"?>
<svg width="80px" height="80px" viewBox="0 0 80 80" version="1.1" xmlns="http://www.w3.org/2000/svg" xmlns:xlink="http://www.w3.org/1999/xlink" xmlns:sketch="http://www.bohemiancoding.com/sketch/ns">
    <!-- Generator: Sketch 3.4 (15588) - http://www.bohemiancoding.com/sketch -->
    <title>tax_support</title>
    <desc>Created with Sketch.</desc>
    <defs></defs>
    <g id="Page-1" stroke="none" stroke-width="1" fill="none" fill-rule="evenodd" sketch:type="MSPage">
        <g id="fun-copy-3" sketch:type="MSArtboardGroup" stroke="#B2C1C4">
            <g id="tax_support" sketch:type="MSLayerGroup" transform="translate(15.000000, 10.000000)">
                <path d="M39.8581277,29.8718919 L17,29.8718919 L39.8581277,29.8718919 Z M39.8581277,36.5259459 L8.65589362,36.5259459 L39.8581277,36.5259459 Z M39.8581277,43.18 L8.65589362,43.18 L39.8581277,43.18 Z M39.8581277,23.2178378 L17,23.2178378 L39.8581277,23.2178378 Z M0,8.72054054 C0,3.90432432 3.9188617,0 8.75301064,0 L32.5933404,0 L32.5944255,14.5054054 L48.5140213,14.5054054 L48.5140213,48.2416216 C48.5140213,53.0578378 44.5951596,56.9621622 39.7610106,56.9621622 L0,56.9621622 L0,8.72054054 Z M32.7495957,0.0778378378 L48.357766,14.2718919 L32.7495957,0.0778378378 Z" id="Imported-Layers" stroke-width="1.5" stroke-linecap="round" stroke-linejoin="round" sketch:type="MSShapeGroup"></path>
                <path d="M11.9069109,23.4932084 C11.4322905,23.1464708 10.9362425,22.8970064 10.4401945,22.788606 L10.4401945,24.8693905 C12.0790456,25.2814554 12.7800839,25.9322166 12.7800839,27.0915979 L12.7800839,27.1131344 C12.7800839,28.2947702 11.8526277,29.0862364 10.4834068,29.2161733 L10.4834068,30.2782815 L9.54523682,30.2782815 L9.54523682,29.1942778 C8.60706688,29.0862364 7.72246585,28.7068351 7,28.1214014 L7.69032451,27.1242616 C8.30493831,27.6335997 8.88705365,27.9588008 9.58809193,28.0779695 L9.58809193,25.9429848 C8.01388064,25.5309198 7.28034389,24.945845 7.28034389,23.7207773 L7.28034389,23.6992408 C7.28034389,22.5391416 8.19708626,21.7480343 9.54523682,21.6288657 L9.54523682,21 L10.4834068,21 L10.4834068,21.6507611 C11.2597986,21.7480343 11.9069109,22.0298035 12.5104538,22.4745321 L11.9069109,23.4932084 L11.9069109,23.4932084 Z M9.58809193,24.6421804 L9.58809193,22.7236376 C8.89776743,22.788606 8.55278373,23.1464708 8.55278373,23.6231452 L8.55278373,23.6339135 C8.55278373,24.0894104 8.75777404,24.3819478 9.58809193,24.6421804 L9.58809193,24.6421804 Z M10.4401945,26.1486583 L10.4401945,28.1214014 C11.1301619,28.0453058 11.5080012,27.7096954 11.5080012,27.18923 L11.5080012,27.1676935 C11.5080012,26.6906602 11.2705124,26.3977638 10.4401945,26.1486583 L10.4401945,26.1486583 Z" id="Fill-1" stroke-width="0.4" fill="#B2C1C4" sketch:type="MSShapeGroup"></path>
            </g>
        </g>
    </g>
</svg>