<?xml version="1.0" encoding="UTF-8" standalone="no"?>
<svg width="218px" height="164px" viewBox="0 0 218 164" version="1.1" xmlns="http://www.w3.org/2000/svg" xmlns:xlink="http://www.w3.org/1999/xlink" xmlns:sketch="http://www.bohemiancoding.com/sketch/ns">
    <!-- Generator: Sketch Beta 3.3 (11654) - http://www.bohemiancoding.com/sketch -->
    <title>Imported Layers</title>
    <desc>Created with Sketch Beta.</desc>
    <defs></defs>
    <g id="Mercury-Mockup-v1" stroke="none" stroke-width="1" fill="none" fill-rule="evenodd" sketch:type="MSPage">
        <g id="Driver-Loyaly-Program---1024px" sketch:type="MSArtboardGroup" transform="translate(-552.000000, -1711.000000)">
            <g id="Imported-Layers" sketch:type="MSLayerGroup" transform="translate(552.000000, 1712.738645)">
                <path d="M203.333,113.832 L198.514,111.159 L193.703,113.832 L188.905,111.159 L184.099,113.832 L179.299,111.159 L174.503,113.832 L169.7,111.159 L164.915,113.832 L160.117,109.578 L160.117,33.365 L207.795,33.365 L207.795,109.578 L203.333,113.832 L203.333,113.832 Z" id="Fill-1" fill="#FFFFFF" sketch:type="MSShapeGroup"></path>
                <path d="M203.333,113.832 L198.514,111.159 L193.703,113.832 L188.905,111.159 L184.099,113.832 L179.299,111.159 L174.503,113.832 L169.7,111.159 L164.915,113.832 L160.117,109.578 L160.117,33.365 L207.795,33.365 L207.795,109.578 L203.333,113.832 L203.333,113.832 Z" id="Stroke-2" stroke="#2F373C" stroke-width="4" stroke-linejoin="round" sketch:type="MSShapeGroup"></path>
                <path d="M99.077,126.381 C92.499,126.381 86.7,123.705 83.268,119.633 C81.898,119.749 80.697,119.907 79.743,120.115 C70.637,122.109 45.866,135.698 45.866,135.698 C40.119,137.856 35.733,141.166 35.733,147.911 C35.733,154.655 40.27,160.123 45.866,160.123 L111.4,160.123 L111.4,122.744 C108.074,125.008 103.778,126.381 99.077,126.381 L99.077,126.381 Z" id="Fill-3" fill="#FFFFFF" sketch:type="MSShapeGroup"></path>
                <path d="M99.077,126.381 C92.499,126.381 86.7,123.705 83.268,119.633 C81.898,119.749 80.697,119.907 79.743,120.115 C70.637,122.109 45.866,135.698 45.866,135.698 C40.119,137.856 35.733,141.166 35.733,147.911 C35.733,154.655 40.27,160.123 45.866,160.123 L111.4,160.123 L111.4,122.744 C108.074,125.008 103.778,126.381 99.077,126.381 L99.077,126.381 Z" id="Stroke-4" stroke="#2F373C" stroke-width="4" stroke-linejoin="round" sketch:type="MSShapeGroup"></path>
                <path d="M111.4,150.114 L111.4,122.742 C108.074,125.008 103.778,126.381 99.077,126.381 C92.499,126.381 86.701,123.705 83.269,119.633 C81.897,119.749 80.697,119.907 79.743,120.115 C70.637,122.109 45.866,135.699 45.866,135.699 C40.119,137.857 35.733,141.166 35.733,147.911 C35.733,148.664 35.797,149.399 35.906,150.114 L111.4,150.114 L111.4,150.114 Z" id="Fill-5" fill="#FFFFFF" sketch:type="MSShapeGroup"></path>
                <path d="M111.4,150.114 L111.4,122.742 C108.074,125.008 103.778,126.381 99.077,126.381 C92.499,126.381 86.701,123.705 83.269,119.633 C81.897,119.749 80.697,119.907 79.743,120.115 C70.637,122.109 45.866,135.699 45.866,135.699 C40.119,137.857 35.733,141.166 35.733,147.911 C35.733,148.664 35.797,149.399 35.906,150.114 L111.4,150.114 L111.4,150.114 Z" id="Stroke-6" stroke="#2F373C" stroke-width="4" stroke-linejoin="round" sketch:type="MSShapeGroup"></path>
                <path d="M166.724,139.68 C166.724,149.05 159.127,156.646 149.758,156.646 C140.389,156.646 132.792,149.05 132.792,139.68 C132.792,130.311 140.389,128.967 149.758,128.967 C159.127,128.967 166.724,130.311 166.724,139.68" id="Fill-7" fill="#FFFFFF" sketch:type="MSShapeGroup"></path>
                <path d="M166.724,139.68 C166.724,149.05 159.127,156.646 149.758,156.646 C140.389,156.646 132.792,149.05 132.792,139.68 C132.792,130.311 140.389,128.967 149.758,128.967 C159.127,128.967 166.724,130.311 166.724,139.68" id="Stroke-8" stroke="#2F373C" stroke-width="4" stroke-linejoin="round" sketch:type="MSShapeGroup"></path>
                <path d="M166.724,139.68 C166.724,149.05 159.127,156.646 149.758,156.646 C140.389,156.646 132.792,149.05 132.792,139.68 C132.792,130.311 140.389,128.967 149.758,128.967 C159.127,128.967 166.724,130.311 166.724,139.68 L166.724,139.68 Z" id="Fill-9" fill="#FFFFFF" sketch:type="MSShapeGroup"></path>
                <path d="M166.724,139.68 C166.724,149.05 159.127,156.646 149.758,156.646 C140.389,156.646 132.792,149.05 132.792,139.68 C132.792,130.311 140.389,128.967 149.758,128.967 C159.127,128.967 166.724,130.311 166.724,139.68 L166.724,139.68 Z" id="Stroke-10" stroke="#2F373C" stroke-width="4" stroke-linejoin="round" sketch:type="MSShapeGroup"></path>
                <path d="M178.357,139.68 C178.357,149.05 185.953,156.646 195.323,156.646 C204.691,156.646 212.287,149.05 212.287,139.68 C212.287,130.311 204.691,128.967 195.323,128.967 C185.953,128.967 178.357,130.311 178.357,139.68" id="Fill-11" fill="#FFFFFF" sketch:type="MSShapeGroup"></path>
                <path d="M178.357,139.68 C178.357,149.05 185.953,156.646 195.323,156.646 C204.691,156.646 212.287,149.05 212.287,139.68 C212.287,130.311 204.691,128.967 195.323,128.967 C185.953,128.967 178.357,130.311 178.357,139.68" id="Stroke-12" stroke="#2F373C" stroke-width="4" stroke-linejoin="round" sketch:type="MSShapeGroup"></path>
                <path d="M178.357,139.68 C178.357,149.05 185.953,156.646 195.323,156.646 C204.691,156.646 212.287,149.05 212.287,139.68 C212.287,130.311 204.691,128.967 195.323,128.967 C185.953,128.967 178.357,130.311 178.357,139.68 L178.357,139.68 Z" id="Fill-13" fill="#FFFFFF" sketch:type="MSShapeGroup"></path>
                <path d="M178.357,139.68 C178.357,149.05 185.953,156.646 195.323,156.646 C204.691,156.646 212.287,149.05 212.287,139.68 C212.287,130.311 204.691,128.967 195.323,128.967 C185.953,128.967 178.357,130.311 178.357,139.68 L178.357,139.68 Z" id="Stroke-14" stroke="#2F373C" stroke-width="4" stroke-linejoin="round" sketch:type="MSShapeGroup"></path>
                <path d="M132.794,139.68 L127.867,139.68" id="Fill-15" fill="#FFFFFF" sketch:type="MSShapeGroup"></path>
                <path d="M132.794,139.68 L127.867,139.68" id="Stroke-16" stroke="#2F373C" stroke-width="4" stroke-linejoin="round" sketch:type="MSShapeGroup"></path>
                <path d="M132.794,139.68 L127.867,139.68" id="Fill-17" fill="#FFFFFF" sketch:type="MSShapeGroup"></path>
                <path d="M132.794,139.68 L127.867,139.68" id="Stroke-18" stroke="#2F373C" stroke-width="4" stroke-linejoin="round" sketch:type="MSShapeGroup"></path>
                <path d="M217.214,139.68 L212.287,139.68" id="Fill-19" fill="#FFFFFF" sketch:type="MSShapeGroup"></path>
                <path d="M217.214,139.68 L212.287,139.68" id="Stroke-20" stroke="#2F373C" stroke-width="4" stroke-linejoin="round" sketch:type="MSShapeGroup"></path>
                <path d="M217.214,139.68 L212.287,139.68" id="Fill-21" fill="#FFFFFF" sketch:type="MSShapeGroup"></path>
                <path d="M217.214,139.68 L212.287,139.68" id="Stroke-22" stroke="#2F373C" stroke-width="4" stroke-linejoin="round" sketch:type="MSShapeGroup"></path>
                <path d="M178.376,137.435 C176.971,135.599 175.133,133.977 172.541,133.977 C169.948,133.977 168.109,135.599 166.706,137.435" id="Fill-23" fill="#FFFFFF" sketch:type="MSShapeGroup"></path>
                <path d="M178.376,137.435 C176.971,135.599 175.133,133.977 172.541,133.977 C169.948,133.977 168.109,135.599 166.706,137.435" id="Stroke-24" stroke="#2F373C" stroke-width="4" stroke-linejoin="round" sketch:type="MSShapeGroup"></path>
                <path d="M23.418,151.412 L114.658,151.412" id="Fill-25" fill="#2F373C" sketch:type="MSShapeGroup"></path>
                <path id="Stroke-26" stroke="#FFFFFF" stroke-width="2" stroke-linecap="round" stroke-linejoin="round" sketch:type="MSShapeGroup"></path>
                <path d="M51.574,130.446 L57.848,137.84" id="Fill-27" fill="#FFFFFF" sketch:type="MSShapeGroup"></path>
                <path d="M51.574,130.446 L57.848,137.84" id="Stroke-28" stroke="#2F373C" stroke-width="4" stroke-linejoin="round" sketch:type="MSShapeGroup"></path>
                <path d="M51.574,130.446 L57.848,137.84" id="Fill-29" fill="#FFFFFF" sketch:type="MSShapeGroup"></path>
                <path d="M51.574,130.446 L57.848,137.84" id="Stroke-30" stroke="#2F373C" stroke-width="4" stroke-linejoin="round" sketch:type="MSShapeGroup"></path>
                <path d="M59.47,126.748 L65.744,134.143" id="Fill-31" fill="#FFFFFF" sketch:type="MSShapeGroup"></path>
                <path d="M59.47,126.748 L65.744,134.143" id="Stroke-32" stroke="#2F373C" stroke-width="4" stroke-linejoin="round" sketch:type="MSShapeGroup"></path>
                <path d="M59.47,126.748 L65.744,134.143" id="Fill-33" fill="#FFFFFF" sketch:type="MSShapeGroup"></path>
                <path d="M59.47,126.748 L65.744,134.143" id="Stroke-34" stroke="#2F373C" stroke-width="4" stroke-linejoin="round" sketch:type="MSShapeGroup"></path>
                <path d="M66.973,123.027 L73.246,130.423" id="Fill-35" fill="#FFFFFF" sketch:type="MSShapeGroup"></path>
                <path d="M66.973,123.027 L73.246,130.423" id="Stroke-36" stroke="#2F373C" stroke-width="4" stroke-linejoin="round" sketch:type="MSShapeGroup"></path>
                <path d="M66.973,123.027 L73.246,130.423" id="Fill-37" fill="#FFFFFF" sketch:type="MSShapeGroup"></path>
                <path d="M66.973,123.027 L73.246,130.423" id="Stroke-38" stroke="#2F373C" stroke-width="4" stroke-linejoin="round" sketch:type="MSShapeGroup"></path>
                <path d="M18.913,61.981 L25.539,63.548 L25.539,108.149 L18.913,109.716 L18.913,61.981" id="Fill-39" fill="#FFFFFF" sketch:type="MSShapeGroup"></path>
                <path d="M18.913,61.981 L25.539,63.548 L25.539,108.149 L18.913,109.716 L18.913,61.981 L18.913,61.981 Z" id="Fill-40" fill="#2F373C" sketch:type="MSShapeGroup"></path>
                <path d="M18.913,61.981 L25.539,63.548 L25.539,108.149 L18.913,109.716 L18.913,61.981 L18.913,61.981 Z" id="Stroke-41" stroke="#2F373C" stroke-width="4" stroke-linejoin="round" sketch:type="MSShapeGroup"></path>
                <path d="M6.396,65.737 L20.44,69.798 L19.884,71.725 L20.44,73.653 L18.57,74.193 L18.57,74.552 L6.492,78.045 C6.46,78.054 6.428,78.059 6.396,78.059 C6.338,78.059 6.281,78.043 6.229,78.016 C6.149,77.972 6.089,77.897 6.063,77.809 L4.929,73.887 C4.877,73.703 4.982,73.511 5.166,73.458 L11.782,71.546 L5.262,69.66 L6.396,65.737 M6.394,61.736 C4.659,61.736 3.06,62.875 2.554,64.626 L1.419,68.549 C1.136,69.528 1.244,70.529 1.651,71.382 C0.972,72.402 0.723,73.701 1.077,74.966 L2.221,78.921 C2.552,80.049 3.292,80.969 4.31,81.526 C4.981,81.882 5.688,82.058 6.396,82.058 C6.795,82.058 7.193,82.003 7.579,81.894 L19.682,78.394 C20.232,78.235 20.727,77.965 21.146,77.612 L21.551,77.495 C23.673,76.882 24.895,74.666 24.283,72.544 L24.047,71.725 L24.283,70.907 C24.895,68.785 23.673,66.569 21.551,65.956 L7.507,61.894 C7.136,61.787 6.762,61.736 6.394,61.736" id="Fill-42" fill="#2F373C" sketch:type="MSShapeGroup"></path>
                <path d="M6.396,93.753 L20.44,97.814 L19.884,99.741 L20.44,101.669 L18.57,102.209 L18.57,102.568 L6.492,106.061 C6.46,106.07 6.428,106.074 6.396,106.074 C6.246,106.074 6.108,105.976 6.063,105.825 L4.929,101.902 C4.877,101.719 4.982,101.527 5.166,101.474 L11.782,99.562 L5.262,97.676 L6.396,93.753 M6.394,89.752 C4.659,89.752 3.06,90.891 2.554,92.642 L1.419,96.564 C1.136,97.544 1.244,98.544 1.651,99.397 C0.971,100.418 0.722,101.717 1.077,102.983 L2.221,106.937 C2.766,108.791 4.481,110.074 6.396,110.074 C6.8,110.074 7.203,110.018 7.593,109.906 L19.682,106.41 C20.232,106.251 20.727,105.981 21.146,105.628 L21.551,105.511 C23.672,104.898 24.895,102.682 24.283,100.56 L24.047,99.741 L24.283,98.923 C24.895,96.801 23.673,94.585 21.551,93.971 L7.507,89.91 C7.136,89.803 6.762,89.752 6.394,89.752" id="Fill-43" fill="#2F373C" sketch:type="MSShapeGroup"></path>
                <path d="M18.571,61.549 L18.571,110.15 L25.881,108.419 L25.881,63.278 L18.571,61.549 L18.571,61.549 Z" id="Stroke-44" stroke="#2F373C" stroke-width="3.52" stroke-linecap="round" stroke-linejoin="round" sketch:type="MSShapeGroup"></path>
                <path d="M129.019,76.837 L129.751,81.972 C130.427,86.707 134.148,90.43 138.883,91.104 L144.018,91.836 L138.883,92.568 C134.148,93.244 130.427,96.965 129.751,101.702 L129.019,106.835 L128.287,101.702 C127.611,96.965 123.89,93.244 119.154,92.568 L114.02,91.836 L119.154,91.104 C123.89,90.43 127.611,86.707 128.287,81.972 L129.019,76.837" id="Fill-45" fill="#2F373C" sketch:type="MSShapeGroup"></path>
                <path d="M129.019,76.837 L129.751,81.972 C130.427,86.707 134.148,90.43 138.883,91.104 L144.018,91.836 L138.883,92.568 C134.148,93.244 130.427,96.965 129.751,101.702 L129.019,106.835 L128.287,101.702 C127.611,96.965 123.89,93.244 119.154,92.568 L114.02,91.836 L119.154,91.104 C123.89,90.43 127.611,86.707 128.287,81.972 L129.019,76.837 L129.019,76.837 Z" id="Stroke-46" stroke="#2F373C" stroke-width="3.52" stroke-linecap="round" stroke-linejoin="round" sketch:type="MSShapeGroup"></path>
                <path d="M38.195,30.738 C41.211,30.738 41.211,33.585 44.227,33.585 C47.243,33.585 47.243,30.738 50.258,30.738 C53.274,30.738 53.274,33.585 56.29,33.585 C59.306,33.585 59.306,30.738 62.322,30.738 C65.338,30.738 65.338,33.585 68.354,33.585 C71.371,33.585 71.371,30.738 74.387,30.738 C77.404,30.738 77.404,33.585 80.42,33.585 C83.436,33.585 83.436,30.738 86.452,30.738 C89.469,30.738 89.469,33.585 92.486,33.585 C95.503,33.585 95.503,30.738 98.52,30.738 L38.195,30.738 L38.195,30.738 Z" id="Fill-47" fill="#2F373C" sketch:type="MSShapeGroup"></path>
                <path d="M38.195,30.738 C41.211,30.738 41.211,33.585 44.227,33.585 C47.243,33.585 47.243,30.738 50.258,30.738 C53.274,30.738 53.274,33.585 56.29,33.585 C59.306,33.585 59.306,30.738 62.322,30.738 C65.338,30.738 65.338,33.585 68.354,33.585 C71.371,33.585 71.371,30.738 74.387,30.738 C77.404,30.738 77.404,33.585 80.42,33.585 C83.436,33.585 83.436,30.738 86.452,30.738 C89.469,30.738 89.469,33.585 92.486,33.585 C95.503,33.585 95.503,30.738 98.52,30.738 L38.195,30.738 L38.195,30.738 Z" id="Stroke-48" stroke="#2F373C" stroke-width="4" stroke-linejoin="round" sketch:type="MSShapeGroup"></path>
                <path d="M38.344,31.564 C38.344,39.799 53.569,41.248 68.166,41.248 C82.763,41.248 97.987,39.799 97.987,31.564 C97.987,26.781 38.344,26.781 38.344,31.564 L38.344,31.564 Z" id="Stroke-49" stroke="#2F373C" stroke-width="4" stroke-linejoin="round" sketch:type="MSShapeGroup"></path>
                <path d="M101.336,27.35 C101.336,28.851 100.228,30.067 98.86,30.067 L38.372,30.067 C37.004,30.067 35.896,28.851 35.896,27.35 L35.896,24.276 C35.896,22.776 37.004,21.56 38.372,21.56 L98.86,21.56 C100.228,21.56 101.336,22.776 101.336,24.276 L101.336,27.35 L101.336,27.35 Z" id="Fill-50" fill="#2F373C" sketch:type="MSShapeGroup"></path>
                <path d="M101.336,27.35 C101.336,28.851 100.228,30.067 98.86,30.067 L38.372,30.067 C37.004,30.067 35.896,28.851 35.896,27.35 L35.896,24.276 C35.896,22.776 37.004,21.56 38.372,21.56 L98.86,21.56 C100.228,21.56 101.336,22.776 101.336,24.276 L101.336,27.35 L101.336,27.35 Z" id="Stroke-51" stroke="#2F373C" stroke-width="4" stroke-linejoin="round" sketch:type="MSShapeGroup"></path>
                <path d="M99.342,20.106 L67.725,31.362 L36.977,20.53 L99.342,20.106 L99.342,20.106 Z" id="Fill-52" fill="#FFFFFF" sketch:type="MSShapeGroup"></path>
                <path d="M99.342,20.106 L67.725,31.362 L36.977,20.53 L99.342,20.106 L99.342,20.106 Z" id="Stroke-53" stroke="#2F373C" stroke-width="4" stroke-linejoin="round" sketch:type="MSShapeGroup"></path>
                <path d="M99.332,18.909 C99.332,10.3 83.415,1.272 68.154,1.272 C52.894,1.272 36.977,10.3 36.977,18.909 C36.977,23.91 99.332,23.91 99.332,18.909 L99.332,18.909 Z" id="Fill-54" fill="#FFFFFF" sketch:type="MSShapeGroup"></path>
                <path d="M99.332,18.909 C99.332,10.3 83.415,1.272 68.154,1.272 C52.894,1.272 36.977,10.3 36.977,18.909 C36.977,23.91 99.332,23.91 99.332,18.909 L99.332,18.909 Z" id="Stroke-55" stroke="#2F373C" stroke-width="4" stroke-linejoin="round" sketch:type="MSShapeGroup"></path>
                <path d="M171.181,58.199 L196.731,58.199" id="Fill-56" fill="#FFFFFF" sketch:type="MSShapeGroup"></path>
                <path d="M171.181,58.199 L196.731,58.199" id="Stroke-57" stroke="#2F373C" stroke-width="4" stroke-linejoin="round" sketch:type="MSShapeGroup"></path>
                <path d="M171.181,69.261 L196.731,69.261" id="Fill-58" fill="#FFFFFF" sketch:type="MSShapeGroup"></path>
                <path d="M171.181,69.261 L196.731,69.261" id="Stroke-59" stroke="#2F373C" stroke-width="4" stroke-linejoin="round" sketch:type="MSShapeGroup"></path>
                <path d="M171.181,46.559 L196.731,46.559" id="Fill-60" fill="#FFFFFF" sketch:type="MSShapeGroup"></path>
                <path d="M171.181,46.559 L196.731,46.559" id="Stroke-61" stroke="#2F373C" stroke-width="4" stroke-linejoin="round" sketch:type="MSShapeGroup"></path>
                <path d="M187.456,84.776 C186.69,84.26 185.869,83.858 185.084,83.648 L185.084,86.555 C187.991,87.339 189.234,88.505 189.234,90.647 L189.234,90.685 C189.234,92.827 187.59,94.204 185.18,94.453 L185.18,96.346 L183.191,96.346 L183.191,94.415 C181.546,94.204 179.94,93.554 178.678,92.598 L180.17,90.418 C181.202,91.202 182.158,91.737 183.287,91.967 L183.287,88.926 C180.533,88.18 179.175,87.147 179.175,84.872 L179.175,84.833 C179.175,82.73 180.782,81.334 183.191,81.086 L183.191,79.976 L185.18,79.976 L185.18,81.143 C186.537,81.315 187.685,81.812 188.737,82.539 L187.456,84.776 L187.456,84.776 Z M183.287,86.077 L183.287,83.476 C182.35,83.591 181.967,84.05 181.967,84.662 L181.967,84.7 C181.967,85.312 182.235,85.694 183.287,86.077 L183.287,86.077 Z M185.084,89.385 L185.084,92.062 C185.983,91.928 186.442,91.527 186.442,90.838 L186.442,90.8 C186.442,90.169 186.117,89.767 185.084,89.385 L185.084,89.385 Z" id="Fill-62" fill="#2F373C" sketch:type="MSShapeGroup"></path>
                <path d="M187.456,84.776 C186.69,84.26 185.869,83.858 185.084,83.648 L185.084,86.555 C187.991,87.339 189.234,88.505 189.234,90.647 L189.234,90.685 C189.234,92.827 187.59,94.204 185.18,94.453 L185.18,96.346 L183.191,96.346 L183.191,94.415 C181.546,94.204 179.94,93.554 178.678,92.598 L180.17,90.418 C181.202,91.202 182.158,91.737 183.287,91.967 L183.287,88.926 C180.533,88.18 179.175,87.147 179.175,84.872 L179.175,84.833 C179.175,82.73 180.782,81.334 183.191,81.086 L183.191,79.976 L185.18,79.976 L185.18,81.143 C186.537,81.315 187.685,81.812 188.737,82.539 L187.456,84.776 L187.456,84.776 Z M183.287,86.077 L183.287,83.476 C182.35,83.591 181.967,84.05 181.967,84.662 L181.967,84.7 C181.967,85.312 182.235,85.694 183.287,86.077 L183.287,86.077 Z M185.084,89.385 L185.084,92.062 C185.983,91.928 186.442,91.527 186.442,90.838 L186.442,90.8 C186.442,90.169 186.117,89.767 185.084,89.385 L185.084,89.385 Z" id="Stroke-63" stroke="#2F373C" stroke-width="0.798" sketch:type="MSShapeGroup"></path>
                <path d="M18.913,109.717 L100.512,85.848 L18.913,61.981 L18.913,109.717 L18.913,109.717 Z" id="Stroke-64" stroke="#2F373C" stroke-width="4" stroke-linejoin="round" sketch:type="MSShapeGroup"></path>
                <path d="M98.062,115.379 C93.757,115.379 90.255,111.876 90.255,107.572 L90.255,74.233 C90.255,72.598 91.581,71.272 93.217,71.272 L96.14,71.272 L96.14,63.15 C96.14,50.882 106.12,40.901 118.388,40.901 C129.944,40.901 139.462,49.575 140.532,61.078 C140.61,61.907 140.334,62.731 139.772,63.347 C139.212,63.963 138.416,64.314 137.583,64.314 L131.963,64.314 C130.477,64.314 129.22,63.212 129.027,61.739 C128.325,56.417 123.751,52.403 118.388,52.403 C112.463,52.403 107.639,57.225 107.639,63.15 L107.639,71.272 L143.557,71.272 C145.192,71.272 146.518,72.598 146.518,74.233 L146.518,107.572 C146.518,111.876 143.017,115.379 138.712,115.379 L98.062,115.379 L98.062,115.379 Z M118.388,90.539 C118.061,90.539 117.794,90.804 117.794,91.133 C117.794,91.461 118.034,91.615 118.106,91.656 C118.204,91.708 118.297,91.765 118.388,91.829 C118.478,91.765 118.571,91.708 118.669,91.656 C118.741,91.615 118.982,91.461 118.982,91.133 C118.982,90.804 118.714,90.539 118.388,90.539 L118.388,90.539 Z" id="Fill-65" fill="#D51E7D" sketch:type="MSShapeGroup"></path>
                <path d="M98.062,115.379 C93.757,115.379 90.255,111.876 90.255,107.572 L90.255,74.233 C90.255,72.598 91.581,71.272 93.217,71.272 L96.14,71.272 L96.14,63.15 C96.14,50.882 106.12,40.901 118.388,40.901 C129.944,40.901 139.462,49.575 140.532,61.078 C140.61,61.907 140.334,62.731 139.772,63.347 C139.212,63.963 138.416,64.314 137.583,64.314 L131.963,64.314 C130.477,64.314 129.22,63.212 129.027,61.739 C128.325,56.417 123.751,52.403 118.388,52.403 C112.463,52.403 107.639,57.225 107.639,63.15 L107.639,71.272 L143.557,71.272 C145.192,71.272 146.518,72.598 146.518,74.233 L146.518,107.572 C146.518,111.876 143.017,115.379 138.712,115.379 L98.062,115.379 L98.062,115.379 Z M118.388,90.539 C118.061,90.539 117.794,90.804 117.794,91.133 C117.794,91.461 118.034,91.615 118.106,91.656 C118.204,91.708 118.297,91.765 118.388,91.829 C118.478,91.765 118.571,91.708 118.669,91.656 C118.741,91.615 118.982,91.461 118.982,91.133 C118.982,90.804 118.714,90.539 118.388,90.539 L118.388,90.539 Z" id="Stroke-66" stroke="#FFFFFF" stroke-width="4" stroke-linejoin="round" sketch:type="MSShapeGroup"></path>
                <path d="M118.387,43.862 C128.416,43.862 136.673,51.559 137.583,61.352 L131.964,61.352 C131.079,54.641 125.335,49.442 118.387,49.442 C110.828,49.442 104.68,55.59 104.68,63.15 L104.68,74.233 L143.558,74.233 L143.558,107.571 C143.558,110.235 141.378,112.417 138.712,112.417 L98.061,112.417 C95.396,112.417 93.216,110.235 93.216,107.571 L93.216,74.233 L99.101,74.233 L99.101,63.15 C99.101,52.516 107.753,43.862 118.387,43.862 M116.692,100.138 L120.083,100.138 L120.083,94.257 C121.192,93.654 121.942,92.482 121.942,91.132 C121.942,89.171 120.351,87.578 118.387,87.578 C116.424,87.578 114.834,89.171 114.834,91.132 C114.834,92.482 115.585,93.654 116.692,94.257 L116.692,100.138 M118.387,37.94 C104.488,37.94 93.179,49.249 93.179,63.15 L93.179,68.311 C89.925,68.332 87.294,70.975 87.294,74.233 L87.294,107.571 C87.294,113.509 92.124,118.339 98.061,118.339 L138.712,118.339 C144.65,118.339 149.48,113.509 149.48,107.571 L149.48,74.233 C149.48,70.963 146.829,68.311 143.558,68.311 L110.602,68.311 L110.602,63.15 C110.602,58.857 114.094,55.364 118.387,55.364 C122.272,55.364 125.584,58.271 126.092,62.127 C126.481,65.073 128.993,67.275 131.964,67.275 L137.583,67.275 C139.25,67.275 140.838,66.574 141.96,65.342 C143.082,64.111 143.634,62.464 143.481,60.803 C142.268,47.77 131.481,37.94 118.387,37.94" id="Fill-67" fill="#FFFFFF" sketch:type="MSShapeGroup"></path>
                <path d="M137.366,0.377 L138.098,5.512 C138.774,10.247 142.495,13.97 147.231,14.644 L152.365,15.376 L147.231,16.108 C142.495,16.784 138.774,20.505 138.098,25.242 L137.366,30.375 L136.635,25.242 C135.958,20.505 132.237,16.784 127.502,16.108 L122.367,15.376 L127.502,14.644 C132.237,13.97 135.958,10.247 136.635,5.512 L137.366,0.377 L137.366,0.377 Z" id="Fill-68" fill="#2F373C" sketch:type="MSShapeGroup"></path>
                <path d="M137.366,0.377 L138.098,5.512 C138.774,10.247 142.495,13.97 147.231,14.644 L152.365,15.376 L147.231,16.108 C142.495,16.784 138.774,20.505 138.098,25.242 L137.366,30.375 L136.635,25.242 C135.958,20.505 132.237,16.784 127.502,16.108 L122.367,15.376 L127.502,14.644 C132.237,13.97 135.958,10.247 136.635,5.512 L137.366,0.377 L137.366,0.377 Z" id="Stroke-69" stroke="#2F373C" stroke-width="3.52" stroke-linecap="round" stroke-linejoin="round" sketch:type="MSShapeGroup"></path>
            </g>
        </g>
    </g>
</svg>