<svg width="141" height="71" viewBox="0 0 141 71" xmlns="http://www.w3.org/2000/svg"><title>Imported Layers</title><desc>Created with Sketch Beta.</desc><g fill="none"><path d="M134.498 46.92c.346-6.7.44-14.242-.775-15.427-2.255-2.2-22.254-2.015-22.254-2.015l-13.825-15.94H67.202v22.536H6.88V46.92H2.37V57.77h136.428V46.92h-4.3z" stroke="#2F373C" stroke-width="4" stroke-linejoin="round"/><path d="M75.106 13.537l1.44 13.023c.255 1.627 1.65 2.857 3.336 2.945l31.586-.027" stroke="#2F373C" stroke-width="4"/><path d="M111.468 46.576c6.34 0 11.48 5.01 11.48 11.19 0 1.447-.284 2.827-.797 4.095-1.673 4.158-5.823 7.102-10.682 7.102-4.91 0-9.096-3.005-10.738-7.234-.48-1.23-.742-2.565-.742-3.96 0-6.182 5.14-11.192 11.48-11.192" fill="#fff"/><path d="M111.468 46.576c6.34 0 11.48 5.01 11.48 11.19 0 1.447-.284 2.827-.797 4.095-1.673 4.158-5.823 7.102-10.682 7.102-4.91 0-9.096-3.005-10.738-7.234-.48-1.23-.742-2.565-.742-3.96 0-6.182 5.14-11.192 11.48-11.192" stroke="#2F373C" stroke-width="4"/><path d="M40.623 46.576c6.342 0 11.48 5.01 11.48 11.19 0 1.447-.283 2.827-.796 4.095-1.675 4.158-5.825 7.102-10.684 7.102-4.908 0-9.095-3.005-10.737-7.234-.48-1.23-.74-2.565-.74-3.96 0-6.182 5.14-11.192 11.477-11.192" fill="#fff"/><path d="M40.623 46.576c6.342 0 11.48 5.01 11.48 11.19 0 1.447-.283 2.827-.796 4.095-1.675 4.158-5.825 7.102-10.684 7.102-4.908 0-9.095-3.005-10.737-7.234-.48-1.23-.74-2.565-.74-3.96 0-6.182 5.14-11.192 11.477-11.192" stroke="#2F373C" stroke-width="4"/><path d="M20.668 9.248l27.738 21.33h13.158v-8.632L24.686 3.386c-2.58-1.633-5.596-1.648-6.7-.036-1.105 1.612.102 4.266 2.682 5.898z" stroke="#fff" stroke-width="3"/><path d="M20.668 9.248l27.738 21.33h13.158v-8.632L24.686 3.386c-2.58-1.633-5.596-1.648-6.7-.036-1.105 1.612.102 4.266 2.682 5.898L.5-26.246" fill="#333E48"/><path d="M20.668 9.248l27.738 21.33h13.158v-8.632L24.686 3.386c-2.58-1.633-5.596-1.648-6.7-.036-1.105 1.612.102 4.266 2.682 5.898" stroke="#fff"/><path d="M20.786 6.034v19.11c0 2.47-2.072 4.49-4.604 4.49s-4.604-2.02-4.604-4.49" stroke="#333E48" stroke-width="3.988" stroke-linecap="round"/></g></svg>