<?xml version="1.0" encoding="UTF-8" standalone="no"?>
<svg width="80px" height="80px" viewBox="0 0 80 80" version="1.1" xmlns="http://www.w3.org/2000/svg" xmlns:xlink="http://www.w3.org/1999/xlink" xmlns:sketch="http://www.bohemiancoding.com/sketch/ns">
    <!-- Generator: Sketch 3.4.2 (15857) - http://www.bohemiancoding.com/sketch -->
    <title>dod</title>
    <desc>Created with Sketch.</desc>
    <defs></defs>
    <g id="Page-1" stroke="none" stroke-width="1" fill="none" fill-rule="evenodd" sketch:type="MSPage">
        <g id="DoD" sketch:type="MSArtboardGroup" stroke="#B2C1C4" stroke-width="1.5">
            <g id="Page-1" sketch:type="MSLayerGroup" transform="translate(16.000000, 8.000000)">
                <path d="M30.8473586,63.6631579 C23.2354621,63.6631579 17.2175862,52.0602947 16.7231931,36.5652211 C12.6061793,36.1583158 8.77201379,34.4788211 5.8658069,31.7972211 C2.0286,28.2556632 0,23.2481684 0,17.3167158 L0,9.63368421 C0,5.48682105 3.58206897,2.10829474 8.0022069,2.06686316 C8.32121379,0.944168421 9.35866207,0.119242105 10.5853517,0.119242105 C12.0658276,0.119242105 13.2698759,1.31974737 13.2698759,2.79511579 L13.2698759,5.38273684 C13.2698759,6.85844211 12.0658276,8.05894737 10.5853517,8.05894737 C9.35866207,8.05894737 8.32155172,7.23435789 8.0022069,6.11233684 C5.81984828,6.15073684 4.05855172,7.71570526 4.05855172,9.63368421 L4.05855172,17.3167158 C4.05855172,24.6885053 8.64596552,32.6224842 18.7183379,32.6224842 C25.7794069,32.6224842 33.3784621,27.8329263 33.3784621,17.3167158 L33.3784621,9.63368421 C33.3784621,7.71570526 31.6168276,6.15073684 29.4348069,6.11233684 C29.1151241,7.23435789 28.0780138,8.05894737 26.8516621,8.05894737 C25.3711862,8.05894737 24.1668,6.85844211 24.1668,5.38273684 L24.1668,2.79511579 C24.1668,1.31974737 25.3711862,0.119242105 26.8516621,0.119242105 C28.0783517,0.119242105 29.1158,0.944168421 29.4348069,2.06686316 C33.8549448,2.10829474 37.4370138,5.48682105 37.4370138,9.63368421 L37.4370138,17.3167158 C37.4370138,23.2481684 35.4084138,28.2556632 31.5712069,31.7972211 C28.6825724,34.4633263 24.8734138,36.1397895 20.7820828,36.5584842 C21.241669,50.3824842 26.3042138,59.6176842 30.8473586,59.6176842 C34.6767931,59.6176842 39.3274,52.6174316 40.6081586,40.8673684 C38.5241379,39.9471158 37.1612621,37.8913684 37.1612621,35.5813053 C37.1612621,32.3907368 39.7653586,29.7950316 42.9662414,29.7950316 C46.1671241,29.7950316 48.7712207,32.3907368 48.7712207,35.5813053 C48.7712207,38.1382737 47.0707517,40.3856842 44.6569103,41.1176421 C43.2311793,54.4198737 37.588069,63.6631579 30.8473586,63.6631579" id="Fill-1" sketch:type="MSShapeGroup"></path>
            </g>
        </g>
    </g>
</svg>