<?xml version="1.0" encoding="UTF-8" standalone="no"?>
<svg width="80px" height="80px" viewBox="0 0 80 80" version="1.1" xmlns="http://www.w3.org/2000/svg" xmlns:xlink="http://www.w3.org/1999/xlink" xmlns:sketch="http://www.bohemiancoding.com/sketch/ns">
    <!-- Generator: Sketch 3.4 (15588) - http://www.bohemiancoding.com/sketch -->
    <title>roadside</title>
    <desc>Created with Sketch.</desc>
    <defs></defs>
    <g id="Page-1" stroke="none" stroke-width="1" fill="none" fill-rule="evenodd" sketch:type="MSPage">
        <g id="fun-copy-4" sketch:type="MSArtboardGroup">
            <g id="roadside" sketch:type="MSLayerGroup" transform="translate(1.000000, 20.000000)">
                <path d="M75.0458021,26.9237647 C75.2416711,23.054521 75.2958088,18.7000336 74.6078342,18.0157311 C73.3316444,16.7463529 62.0119987,16.8522353 62.0119987,16.8522353 L54.1875802,7.64894118 L36.9565842,7.64894118 L36.9565842,20.6609748 L2.81516043,20.6609748 L2.81516043,26.9237647 L0.262780749,26.9237647 L0.262780749,33.1871597 L15.4170789,33.1871597 C15.4164706,33.1871597 15.4170789,33.1865546 15.4170789,33.1865546 C15.4170789,29.6180168 18.3259158,26.7247059 21.9136029,26.7247059 C25.503115,26.7247059 28.4113436,29.6180168 28.4113436,33.1865546 L28.4113436,33.1871597 L55.514258,33.1871597 L55.514258,33.1865546 C55.514258,29.6180168 58.4237032,26.7247059 62.0113904,26.7247059 C65.6002941,26.7247059 68.509131,29.6180168 68.509131,33.1865546 L68.509131,33.1871597 L77.4795655,33.1871597 L77.4795655,26.9237647 L75.0458021,26.9237647 L75.0458021,26.9237647 Z" id="Stroke-2" stroke="#B2C1C4" stroke-width="1.5" stroke-linecap="round" stroke-linejoin="round" sketch:type="MSShapeGroup"></path>
                <path d="M41.4311564,7.64833613 L42.2450468,15.1677983 C42.3904278,16.1074286 43.1787701,16.8171429 44.1337834,16.8679664 L62.0113904,16.8522353 M62.0113904,26.7247059 C65.6002941,26.7247059 68.509131,29.6180168 68.509131,33.1865546 C68.509131,34.0215126 68.3479345,34.8177479 68.0577807,35.5498487 C67.1100668,37.9506555 64.7608556,39.6502185 62.0113904,39.6502185 C59.232119,39.6502185 56.8634425,37.914958 55.933369,35.4736134 C55.6626805,34.7632941 55.514258,33.9930756 55.514258,33.1865546 C55.514258,29.6180168 58.4237032,26.7247059 62.0113904,26.7247059" id="Stroke-3" stroke="#B2C1C4" stroke-width="1.5" stroke-linecap="round" stroke-linejoin="round" sketch:type="MSShapeGroup"></path>
                <path d="M10.6195053,5.17189916 L26.3194385,17.4869244 L33.7655013,17.4869244 L33.7655013,12.5037983 L12.8932888,1.78668908 C11.4327874,0.844638655 9.72653743,0.835563025 9.10121658,1.76611765 C8.47589572,2.69727731 9.15900401,4.22984874 10.6195053,5.17189916 L10.6195053,5.17189916 Z" id="Stroke-4" stroke="#B2C1C4" stroke-width="1.5" sketch:type="MSShapeGroup"></path>
                <path d="M34.0453142,11.965916 L13.2235896,1.27905882 C12.4139572,0.756907563 11.5063904,0.468907563 10.6675602,0.468907563 C9.74721925,0.468907563 9.01179813,0.810756303 8.59572861,1.42971429 C8.28428476,1.89257143 8.18756684,2.46191597 8.3146992,3.07663866 C8.51360963,4.03805042 9.2514639,5.01095798 10.2423663,5.64685714 L25.9429078,17.9618824 C26.0499666,18.0465882 26.1825735,18.0919664 26.3194385,18.0919664 L33.7661096,18.0919664 C34.1024933,18.0919664 34.3743984,17.8215126 34.3743984,17.4869244 L34.3743984,12.5037983 C34.3743984,12.2775126 34.247266,12.0699832 34.0453142,11.965916" id="Fill-5" fill="#B2C1C4" sketch:type="MSShapeGroup"></path>
                <path d="M10.6858088,3.31684034 L10.6858088,14.3509916 C10.6858088,15.7764706 9.51302807,16.9429916 8.08050802,16.9429916 C6.64677139,16.9429916 5.47399064,15.7764706 5.47399064,14.3509916" id="Fill-6" sketch:type="MSShapeGroup"></path>
                <path d="M10.6858088,3.31684034 L10.6858088,14.3509916 C10.6858088,15.7764706 9.51302807,16.9429916 8.08050802,16.9429916 C6.64677139,16.9429916 5.47399064,15.7764706 5.47399064,14.3509916" id="Stroke-7" stroke="#B2C1C4" stroke-width="1.5" stroke-linecap="round" stroke-linejoin="round" sketch:type="MSShapeGroup"></path>
                <path d="M21.9136029,26.7247059 C25.503115,26.7247059 28.4113436,29.6180168 28.4113436,33.1865546 C28.4113436,34.0215126 28.2507553,34.8177479 27.9606016,35.5498487 C27.0128877,37.9506555 24.6636765,39.6502185 21.9136029,39.6502185 C19.1355481,39.6502185 16.7656551,37.914958 15.8361898,35.4736134 C15.5655013,34.7632941 15.4170789,33.9930756 15.4170789,33.1865546 C15.4170789,29.6180168 18.3259158,26.7247059 21.9136029,26.7247059" id="Stroke-8" stroke="#B2C1C4" stroke-width="1.5" stroke-linecap="round" stroke-linejoin="round" sketch:type="MSShapeGroup"></path>
            </g>
        </g>
    </g>
</svg>