<?xml version="1.0" encoding="UTF-8" standalone="no"?>
<svg
   xmlns:dc="http://purl.org/dc/elements/1.1/"
   xmlns:cc="http://creativecommons.org/ns#"
   xmlns:rdf="http://www.w3.org/1999/02/22-rdf-syntax-ns#"
   xmlns:svg="http://www.w3.org/2000/svg"
   xmlns="http://www.w3.org/2000/svg"
   viewBox="0 0 434.66666 416.79999"
   height="416.79999"
   width="434.66666"
   xml:space="preserve"
   id="svg2"
   version="1.1"><metadata
     id="metadata8"><rdf:RDF><cc:Work
         rdf:about=""><dc:format>image/svg+xml</dc:format><dc:type
           rdf:resource="http://purl.org/dc/dcmitype/StillImage" /></cc:Work></rdf:RDF></metadata><defs
     id="defs6"><clipPath
       id="clipPath18"
       clipPathUnits="userSpaceOnUse"><path
         id="path16"
         d="M 0,312.6 H 326 V 0 H 0 Z" /></clipPath></defs><g
     transform="matrix(1.3333333,0,0,-1.3333333,0,416.8)"
     id="g10"><g
       id="g12"><g
         clip-path="url(#clipPath18)"
         id="g14"><g
           transform="translate(169.5996,296.1)"
           id="g20"><path
             id="path22"
             style="fill:#333e48;fill-opacity:1;fill-rule:nonzero;stroke:none"
             d="m 0,0 c -77.1,0 -139.899,-62.7 -139.899,-139.9 0,-77.2 62.699,-139.9 139.899,-139.9 77.2,0 139.9,62.7 139.9,139.9 C 139.9,-62.7 77.2,0 0,0 m 0,-296.1 c -86.2,0 -156.2,70.2 -156.2,156.3 0,86.1 70,156.4 156.2,156.4 86.2,0 156.4,-70.1 156.4,-156.4 0,-86.3 -70.099,-156.3 -156.4,-156.3" /></g><g
           transform="translate(160.5332,83.1098)"
           id="g24"><path
             id="path26"
             style="fill:#d90073;fill-opacity:1;fill-rule:nonzero;stroke:none"
             d="m 0,0 c -0.181,-0.181 -0.181,-0.181 0,0 -6.514,-6.513 -16.827,-6.33 -23.52,0.365 l -47.197,47.572 c -6.513,6.514 -6.33,16.827 0.003,23.159 6.514,6.512 16.827,6.33 23.52,-0.366 L 0.003,23.158 C 6.516,17.006 6.333,6.332 0,0" /></g><g
           transform="translate(252.9678,188.8256)"
           id="g28"><path
             id="path30"
             style="fill:#d90073;fill-opacity:1;fill-rule:nonzero;stroke:none"
             d="m 0,0 -91.867,-104.91 c -6.056,-6.942 -16.357,-7.462 -23.491,-1.238 -6.941,6.055 -7.461,16.357 -1.574,23.105 l 91.868,104.91 c 6.055,6.941 16.357,7.462 23.491,1.238 C 5.318,17.771 6.056,6.941 0,0" /></g></g></g></g></svg>