<?xml version="1.0" encoding="UTF-8" standalone="no"?>
<svg
   xmlns:dc="http://purl.org/dc/elements/1.1/"
   xmlns:cc="http://creativecommons.org/ns#"
   xmlns:rdf="http://www.w3.org/1999/02/22-rdf-syntax-ns#"
   xmlns:svg="http://www.w3.org/2000/svg"
   xmlns="http://www.w3.org/2000/svg"
   viewBox="0 0 434.66666 416.79999"
   height="416.79999"
   width="434.66666"
   xml:space="preserve"
   id="svg2"
   version="1.1"><metadata
     id="metadata8"><rdf:RDF><cc:Work
         rdf:about=""><dc:format>image/svg+xml</dc:format><dc:type
           rdf:resource="http://purl.org/dc/dcmitype/StillImage" /></cc:Work></rdf:RDF></metadata><defs
     id="defs6"><clipPath
       id="clipPath18"
       clipPathUnits="userSpaceOnUse"><path
         id="path16"
         d="M 0,312.6 H 326 V 0 H 0 Z" /></clipPath></defs><g
     transform="matrix(1.3333333,0,0,-1.3333333,0,416.8)"
     id="g10"><g
       id="g12"><g
         clip-path="url(#clipPath18)"
         id="g14"><g
           transform="translate(109.4468,201.9569)"
           id="g20"><path
             id="path22"
             style="fill:#ea0b8c;fill-opacity:1;fill-rule:nonzero;stroke:none"
             d="M 0,0 C 18.435,-12.852 22.961,-38.214 10.11,-56.65 -2.742,-75.084 -28.104,-79.611 -46.54,-66.759 -64.975,-53.908 -69.501,-28.545 -56.649,-10.11 -43.798,8.325 -18.435,12.852 0,0" /></g><g
           transform="translate(93.5874,198.7025)"
           id="g24"><path
             id="path26"
             style="fill:#ffffff;fill-opacity:1;fill-rule:nonzero;stroke:none"
             d="M 0,0 C 16.638,-4.092 26.808,-20.898 22.715,-37.536 18.623,-54.174 1.817,-64.344 -14.821,-60.251 -31.459,-56.158 -41.629,-39.353 -37.536,-22.715 -33.443,-6.077 -16.638,4.093 0,0" /></g><g
           transform="translate(93.2515,179.0019)"
           id="g28"><path
             id="path30"
             style="fill:#ea0b8c;fill-opacity:1;fill-rule:nonzero;stroke:none"
             d="m 0,0 c 5.75,-4.009 7.162,-11.92 3.153,-17.671 -4.008,-5.75 -11.92,-7.162 -17.671,-3.154 -5.75,4.009 -7.162,11.921 -3.153,17.671 C -13.663,2.597 -5.751,4.009 0,0" /></g><path
           id="path32"
           style="fill:#ea0b8c;fill-opacity:1;fill-rule:nonzero;stroke:none"
           d="M 119.297,165.229 H 95.792 v 4.701 h 23.505 z" /><path
           id="path34"
           style="fill:#ea0b8c;fill-opacity:1;fill-rule:nonzero;stroke:none"
           d="M 74.755,165.229 H 51.25 v 4.701 h 23.505 z" /><g
           transform="translate(82.6528,135.7357)"
           id="g36"><path
             id="path38"
             style="fill:#ea0b8c;fill-opacity:1;fill-rule:nonzero;stroke:none"
             d="m 0,0 4.701,-0.011 0.057,23.505 -4.7,0.011 z" /></g><g
           transform="translate(185.1787,144.7279)"
           id="g40"><path
             id="path42"
             style="fill:#ea0b8c;fill-opacity:1;fill-rule:nonzero;stroke:none"
             d="M 0,0 C 13.214,0 23.436,10.705 23.436,24.017 23.436,37.33 13.214,48.132 0,48.132 -13.116,48.132 -23.342,37.33 -23.342,24.017 -23.342,10.705 -13.116,0 0,0 m 0,58.162 c 19.002,0 33.764,-15.241 33.764,-34.145 0,-18.81 -14.762,-34.05 -33.764,-34.05 -18.904,0 -33.567,15.24 -33.567,34.05 0,18.904 14.663,34.145 33.567,34.145" /></g><g
           transform="translate(280.5166,135.6606)"
           id="g44"><path
             id="path46"
             style="fill:#ea0b8c;fill-opacity:1;fill-rule:nonzero;stroke:none"
             d="M 0,0 H -9.55 L -38.099,47.551 V 0 h -10.226 v 66.459 h 9.842 L -10.226,19.293 V 66.459 H 0 Z" /></g><g
           transform="translate(309.2529,67.3686)"
           id="g48"><path
             id="path50"
             style="fill:none;stroke:#333e48;stroke-width:9;stroke-linecap:butt;stroke-linejoin:miter;stroke-miterlimit:10;stroke-dasharray:none;stroke-opacity:1"
             d="m 0,0 h -292.505 c -3.168,0 -5.761,2.593 -5.761,5.761 v 186.248 c 0,3.168 2.593,5.76 5.761,5.76 H 0 c 3.168,0 5.76,-2.592 5.76,-5.76 V 5.761 C 5.76,2.593 3.168,0 0,0 Z" /></g></g></g></g></svg>