<?xml version="1.0" encoding="UTF-8"?>
<svg width="87px" height="102px" viewBox="0 0 87 102" version="1.1" xmlns="http://www.w3.org/2000/svg" xmlns:xlink="http://www.w3.org/1999/xlink">
    <!-- Generator: Sketch 47.1 (45422) - http://www.bohemiancoding.com/sketch -->
    <title>form</title>
    <desc>Created with Sketch.</desc>
    <defs></defs>
    <g id="Page-1" stroke="none" stroke-width="1" fill="none" fill-rule="evenodd">
        <g id="Desktop-HD" transform="translate(-236.000000, -693.000000)" stroke="#352384">
            <g id="form" transform="translate(236.000000, 693.000000)">
                <path d="M3,99.75 L84,99.75 C84.4142136,99.75 84.75,99.4142136 84.75,99 L84.75,3 C84.75,2.58578644 84.4142136,2.25 84,2.25 L3,2.25 C2.58578644,2.25 2.25,2.58578644 2.25,3 L2.25,99 C2.25,99.4142136 2.58578644,99.75 3,99.75 Z" id="Stroke-1" stroke-width="4.5"></path>
                <polygon id="Stroke-3" stroke-width="2" points="8 31 79 31 79 17 8 17"></polygon>
                <polygon id="Stroke-4" stroke-width="2" points="8 51 79 51 79 37 8 37"></polygon>
                <polygon id="Stroke-5" stroke-width="2" fill="#352384" points="8 92 79 92 79 78 8 78"></polygon>
            </g>
        </g>
    </g>
</svg>