<?xml version="1.0" encoding="UTF-8" standalone="no"?>
<svg width="142px" height="141px" viewBox="0 0 142 141" version="1.1" xmlns="http://www.w3.org/2000/svg" xmlns:xlink="http://www.w3.org/1999/xlink" xmlns:sketch="http://www.bohemiancoding.com/sketch/ns">
    <!-- Generator: Sketch Beta 3.3 (11654) - http://www.bohemiancoding.com/sketch -->
    <title>Imported Layers</title>
    <desc>Created with Sketch Beta.</desc>
    <defs></defs>
    <g id="Mercury-Mockup-v1" stroke="none" stroke-width="1" fill="none" fill-rule="evenodd" sketch:type="MSPage">
        <g id="Driver-Loyaly-Program---1024px" sketch:type="MSArtboardGroup" transform="translate(-280.000000, -1720.000000)">
            <g id="Imported-Layers" sketch:type="MSLayerGroup" transform="translate(282.000000, 1722.000000)">
                <path d="M137.496,68.53 C137.496,73.257 137.017,77.872 136.105,82.329 C135.193,86.786 133.848,91.086 132.115,95.182 C130.383,99.278 128.263,103.17 125.802,106.813 C123.341,110.455 120.539,113.848 117.441,116.946 C114.344,120.044 110.95,122.846 107.308,125.307 C103.665,127.768 99.773,129.888 95.677,131.62 C91.581,133.353 87.281,134.698 82.824,135.61 C78.367,136.522 73.752,137.001 69.025,137.001 C64.298,137.001 59.683,136.522 55.226,135.61 C50.769,134.698 46.469,133.353 42.373,131.62 C38.277,129.888 34.385,127.768 30.742,125.307 C27.1,122.846 23.706,120.044 20.609,116.946 C17.511,113.848 14.709,110.455 12.248,106.813 C9.787,103.17 7.667,99.278 5.935,95.182 C4.202,91.086 2.857,86.786 1.945,82.329 C1.033,77.872 0.554,73.257 0.554,68.53 C0.554,63.803 1.033,59.188 1.945,54.731 C2.857,50.273 4.202,45.974 5.935,41.878 C7.667,37.782 9.787,33.89 12.248,30.247 C14.709,26.604 17.511,23.211 20.609,20.114 C23.706,17.016 27.1,14.214 30.742,11.753 C34.385,9.292 38.277,7.172 42.373,5.44 C46.469,3.707 50.769,2.362 55.226,1.45 C59.683,0.538 64.298,0.059 69.025,0.059 C73.752,0.059 78.367,0.538 82.824,1.45 C87.281,2.362 91.581,3.707 95.677,5.44 C99.773,7.172 103.665,9.292 107.308,11.753 C110.95,14.214 114.344,17.016 117.441,20.114 C120.539,23.211 123.341,26.604 125.802,30.247 C128.263,33.89 130.383,37.782 132.115,41.878 C133.848,45.974 135.193,50.273 136.105,54.731 C137.017,59.188 137.496,63.803 137.496,68.53 L137.496,68.53 Z" id="Fill-1" fill="#FFFFFF" sketch:type="MSShapeGroup"></path>
                <path d="M137.496,68.53 C137.496,73.257 137.017,77.872 136.105,82.329 C135.193,86.786 133.848,91.086 132.115,95.182 C130.383,99.278 128.263,103.17 125.802,106.813 C123.341,110.455 120.539,113.848 117.441,116.946 C114.344,120.044 110.95,122.846 107.308,125.307 C103.665,127.768 99.773,129.888 95.677,131.62 C91.581,133.353 87.281,134.698 82.824,135.61 C78.367,136.522 73.752,137.001 69.025,137.001 C64.298,137.001 59.683,136.522 55.226,135.61 C50.769,134.698 46.469,133.353 42.373,131.62 C38.277,129.888 34.385,127.768 30.742,125.307 C27.1,122.846 23.706,120.044 20.609,116.946 C17.511,113.848 14.709,110.455 12.248,106.813 C9.787,103.17 7.667,99.278 5.935,95.182 C4.202,91.086 2.857,86.786 1.945,82.329 C1.033,77.872 0.554,73.257 0.554,68.53 C0.554,63.803 1.033,59.188 1.945,54.731 C2.857,50.273 4.202,45.974 5.935,41.878 C7.667,37.782 9.787,33.89 12.248,30.247 C14.709,26.604 17.511,23.211 20.609,20.114 C23.706,17.016 27.1,14.214 30.742,11.753 C34.385,9.292 38.277,7.172 42.373,5.44 C46.469,3.707 50.769,2.362 55.226,1.45 C59.683,0.538 64.298,0.059 69.025,0.059 C73.752,0.059 78.367,0.538 82.824,1.45 C87.281,2.362 91.581,3.707 95.677,5.44 C99.773,7.172 103.665,9.292 107.308,11.753 C110.95,14.214 114.344,17.016 117.441,20.114 C120.539,23.211 123.341,26.604 125.802,30.247 C128.263,33.89 130.383,37.782 132.115,41.878 C133.848,45.974 135.193,50.273 136.105,54.731 C137.017,59.188 137.496,63.803 137.496,68.53 L137.496,68.53 Z" id="Stroke-2" stroke="#2F373C" stroke-width="4" stroke-linejoin="round" sketch:type="MSShapeGroup"></path>
                <path d="M128.494,70.043 L117.942,70.043 C117.942,43.144 96.058,21.26 69.158,21.26 L69.158,10.708 C101.876,10.708 128.494,37.325 128.494,70.043 L406.085937,70.3359375" id="Fill-3" fill="#D51E7D" sketch:type="MSShapeGroup"></path>
                <path d="M90.295,72.501 C89,72.501 87.95,71.451 87.95,70.156 C87.95,69.547 87.92,68.928 87.862,68.319 C86.927,58.655 78.886,51.365 69.158,51.365 C59.53,51.365 51.497,58.572 50.474,68.13 C50.403,68.8 50.367,69.481 50.367,70.156 C50.367,71.451 49.317,72.501 48.022,72.501 C46.727,72.501 45.677,71.451 45.677,70.156 C45.677,69.316 45.723,68.468 45.811,67.632 C47.091,55.685 57.127,46.675 69.158,46.675 C81.313,46.675 91.36,55.787 92.53,67.869 C92.603,68.628 92.64,69.398 92.64,70.156 C92.64,71.451 91.59,72.501 90.295,72.501" id="Fill-4" fill="#2F373C" sketch:type="MSShapeGroup"></path>
                <path d="M70.785,70.541 L103.435,55.715" id="Fill-5" fill="#FFFFFF" sketch:type="MSShapeGroup"></path>
                <path d="M70.785,70.541 L103.435,55.715" id="Stroke-6" stroke="#2F373C" stroke-width="4" stroke-linecap="round" stroke-linejoin="round" sketch:type="MSShapeGroup"></path>
                <path d="M69.181,78.454 C64.444,78.454 60.59,74.6 60.59,69.863 C60.59,65.125 64.444,61.271 69.181,61.271 C73.919,61.271 77.773,65.125 77.773,69.863 C77.773,74.6 73.919,78.454 69.181,78.454" id="Fill-7" fill="#D51E7D" sketch:type="MSShapeGroup"></path>
                <path d="M69.181,78.454 C64.444,78.454 60.59,74.6 60.59,69.863 C60.59,65.125 64.444,61.271 69.181,61.271 C73.919,61.271 77.773,65.125 77.773,69.863 C77.773,74.6 73.919,78.454 69.181,78.454 L69.181,78.454 Z" id="Stroke-8" stroke="#FFFFFF" stroke-width="3.367" sketch:type="MSShapeGroup"></path>
                <path d="M3.415,81.859 C3.389,82.26 3.399,82.664 3.478,83.067 C9.642,114.318 37.265,137.001 69.158,137.001 C100.988,137.001 128.563,114.412 134.801,83.258 C134.886,82.906 134.93,82.538 134.93,82.159 C134.93,82.056 134.906,81.96 134.9,81.859 L3.415,81.859 L3.415,81.859 Z" id="Fill-9" fill="#2F373C" sketch:type="MSShapeGroup"></path>
                <path d="M3.415,81.859 C3.389,82.26 3.399,82.664 3.478,83.067 C9.642,114.318 37.265,137.001 69.158,137.001 C100.988,137.001 128.563,114.412 134.801,83.258 C134.886,82.906 134.93,82.538 134.93,82.159 C134.93,82.056 134.906,81.96 134.9,81.859 L3.415,81.859 L3.415,81.859 Z" id="Stroke-10" stroke="#2F373C" stroke-width="4" stroke-linejoin="round" sketch:type="MSShapeGroup"></path>
                <path d="M129.034,71.305 L109.944,71.305" id="Fill-11" fill="#FFFFFF" sketch:type="MSShapeGroup"></path>
                <path d="M129.034,71.305 L109.944,71.305" id="Stroke-12" stroke="#2F373C" stroke-width="4" stroke-linecap="round" stroke-linejoin="round" sketch:type="MSShapeGroup"></path>
                <path d="M112.678,27.799 L99.179,41.297" id="Fill-13" fill="#FFFFFF" sketch:type="MSShapeGroup"></path>
                <path d="M112.678,27.799 L99.179,41.297" id="Stroke-14" stroke="#2F373C" stroke-width="4" stroke-linecap="round" stroke-linejoin="round" sketch:type="MSShapeGroup"></path>
                <path d="M69.158,9.792 L69.158,28.881" id="Fill-15" fill="#FFFFFF" sketch:type="MSShapeGroup"></path>
                <path d="M69.158,9.792 L69.158,28.881" id="Stroke-16" stroke="#2F373C" stroke-width="4" stroke-linecap="round" stroke-linejoin="round" sketch:type="MSShapeGroup"></path>
                <path d="M25.652,27.831 L39.151,41.33" id="Fill-17" fill="#FFFFFF" sketch:type="MSShapeGroup"></path>
                <path d="M25.652,27.831 L39.151,41.33" id="Stroke-18" stroke="#2F373C" stroke-width="4" stroke-linecap="round" stroke-linejoin="round" sketch:type="MSShapeGroup"></path>
                <path d="M9.329,71.351 L28.418,71.351" id="Fill-19" fill="#FFFFFF" sketch:type="MSShapeGroup"></path>
                <path d="M9.329,71.351 L28.418,71.351" id="Stroke-20" stroke="#2F373C" stroke-width="4" stroke-linecap="round" stroke-linejoin="round" sketch:type="MSShapeGroup"></path>
                <path d="M69.158,9.792 L69.158,24.539" id="Fill-21" fill="#FFFFFF" sketch:type="MSShapeGroup"></path>
                <path d="M69.158,9.792 L69.158,24.539" id="Stroke-22" stroke="#2F373C" stroke-width="3.516" stroke-linecap="round" stroke-linejoin="round" sketch:type="MSShapeGroup"></path>
                <path d="M46.105,14.314 L51.749,27.939" id="Fill-23" fill="#FFFFFF" sketch:type="MSShapeGroup"></path>
                <path d="M46.105,14.314 L51.749,27.939" id="Stroke-24" stroke="#2F373C" stroke-width="4" stroke-linecap="round" stroke-linejoin="round" sketch:type="MSShapeGroup"></path>
                <path d="M13.435,46.813 L27.06,52.456" id="Fill-25" fill="#FFFFFF" sketch:type="MSShapeGroup"></path>
                <path d="M13.435,46.813 L27.06,52.456" id="Stroke-26" stroke="#2F373C" stroke-width="4" stroke-linecap="round" stroke-linejoin="round" sketch:type="MSShapeGroup"></path>
                <path d="M92.415,14.314 L86.771,27.939" id="Fill-27" fill="#FFFFFF" sketch:type="MSShapeGroup"></path>
                <path d="M92.415,14.314 L86.771,27.939" id="Stroke-28" stroke="#2F373C" stroke-width="4" stroke-linecap="round" stroke-linejoin="round" sketch:type="MSShapeGroup"></path>
                <path d="M125.085,46.813 L111.461,52.456" id="Fill-29" fill="#FFFFFF" sketch:type="MSShapeGroup"></path>
                <path d="M125.085,46.813 L111.461,52.456" id="Stroke-30" stroke="#2F373C" stroke-width="4" stroke-linecap="round" stroke-linejoin="round" sketch:type="MSShapeGroup"></path>
            </g>
        </g>
    </g>
</svg>