<?xml version="1.0" encoding="UTF-8" standalone="no"?>
<svg width="103px" height="95px" viewBox="0 0 103 95" version="1.1" xmlns="http://www.w3.org/2000/svg" xmlns:xlink="http://www.w3.org/1999/xlink">
    <!-- Generator: Sketch 3.7.1 (28215) - http://www.bohemiancoding.com/sketch -->
    <title>gas_icon_silver</title>
    <desc>Created with Sketch.</desc>
    <defs></defs>
    <g id="Emails" stroke="none" stroke-width="1" fill="none" fill-rule="evenodd" stroke-linejoin="round">
        <g id="gas_icon_silver" transform="translate(1.000000, 1.000000)" stroke="#B2C1C4" stroke-width="3">
            <path d="M40.1274,33.5453 L24.6934,10.3103 C24.5354,9.9113 24.2274,9.5903 23.8374,9.4203 L4.7434,0.9973 C4.3434,0.8203 3.8934,0.8133 3.4994,0.9693 C3.0974,1.1253 2.7734,1.4323 2.5994,1.8293 L0.6364,6.2843 C0.2784,7.1013 0.6494,8.0593 1.4674,8.4213 L18.1114,15.7653 L33.2784,38.3083 L40.1274,33.5453 L40.1274,33.5453 Z" id="Stroke-1"></path>
            <path d="M33.7327,37.8539 L31.6397,39.3089 C31.2847,39.5539 31.0437,39.9309 30.9677,40.3559 C30.8917,40.7779 30.9867,41.2149 31.2337,41.5669 L33.3297,44.5789 C31.9467,46.4409 31.2497,48.2129 31.2497,49.8589 L31.2497,86.0099 C31.2497,89.5889 34.1637,92.4999 37.7437,92.4999 L93.1667,92.4999 C96.7457,92.4999 99.6567,89.5889 99.6567,86.0279 C99.6567,86.0279 100.0117,56.6539 100.0117,52.0149 C100.0117,47.3789 96.2957,41.4399 92.8527,39.8869 L92.8087,31.0679 C92.8087,28.6399 90.8297,26.6609 88.4007,26.6609 L56.4077,26.6609 C53.9777,26.6609 51.9997,28.6399 51.9997,31.0679 L51.9997,34.7939 L49.6337,34.7939 C48.5147,34.7939 47.2017,35.0639 45.7217,35.5999 L43.7997,32.8319 C43.5527,32.4759 43.1757,32.2349 42.7537,32.1589 C42.3287,32.0859 41.8907,32.1819 41.5387,32.4259 L33.7327,37.8539 L33.7327,37.8539 Z M83.2987,35.5129 L83.2987,39.4139 C83.2987,40.0509 82.7787,40.5709 82.1417,40.5709 L62.6657,40.5709 C62.0287,40.5709 61.5087,40.0509 61.5087,39.4139 L61.5087,35.5129 C61.5087,35.4019 61.5307,35.2809 61.5817,35.1409 C61.7467,34.6689 62.1847,34.3519 62.6657,34.3519 L82.1417,34.3519 C82.6237,34.3519 83.0607,34.6689 83.2287,35.1469 C83.2767,35.2809 83.2987,35.4019 83.2987,35.5129 L83.2987,35.5129 Z" id="Stroke-3"></path>
        </g>
    </g>
</svg>