<?xml version="1.0" encoding="UTF-8" standalone="no"?>
<svg width="80px" height="80px" viewBox="0 0 80 80" version="1.1" xmlns="http://www.w3.org/2000/svg" xmlns:xlink="http://www.w3.org/1999/xlink" xmlns:sketch="http://www.bohemiancoding.com/sketch/ns">
    <!-- Generator: Sketch 3.4 (15588) - http://www.bohemiancoding.com/sketch -->
    <title>honest_dollar</title>
    <desc>Created with Sketch.</desc>
    <defs></defs>
    <g id="Page-1" stroke="none" stroke-width="1" fill="none" fill-rule="evenodd" sketch:type="MSPage">
        <g id="honest_dollar" sketch:type="MSArtboardGroup" stroke="#B2C1C4">
            <g sketch:type="MSLayerGroup" transform="translate(10.000000, 5.000000)">
                <g id="Imported-Layers" transform="translate(0.000000, 30.000000)" stroke-width="1.5" sketch:type="MSShapeGroup" stroke-linejoin="round">
                    <path d="M38.6219595,40.5153296 L47.6167967,40.5153296 C47.6167967,40.5158646 48.3477996,31.1513462 49.4130056,30.2299829 C50.130216,29.6098551 53.3990404,27.0421301 54.5305565,22.5738925 C56.0434885,22.6712724 58.1526813,22.3202769 59.3064776,20.8654645 C60.516505,19.340025 59.9149394,16.5673742 58.5452373,15.4924504 C60.1584303,19.3384199 56.5442627,19.9061124 54.9167467,19.3929954 C54.9119724,17.9724265 54.6812131,16.417024 54.1316348,14.7251826 C51.0872039,5.36066424 38.076625,0.592261318 30.4488376,0.592261318 C22.8215807,0.592261318 16.9942461,4.28627543 16.9942461,4.28627543 C16.9942461,4.28627543 15.4717654,3.05779102 13.9498152,1.98340221 C12.427865,0.909013398 8.7781552,0.325269278 8.92722038,1.82984166 C9.07946845,3.36491212 10.1446744,5.66778535 11.5149071,7.20285581 C9.84070879,8.12421913 8.62272424,10.4265573 7.86201438,12.1151883 C7.10077403,13.8043544 4.81811397,13.9573799 3.44788135,13.9573799 C2.07817921,13.9573799 0.589649313,12.5951319 1.01297321,16.7209348 C1.46918694,21.1725856 3.44788135,23.7825799 6.03556804,26.0849181 C8.61794991,28.3835109 15.0155517,31.1513462 15.0155517,31.1513462 L14.8786876,39.5832652 L23.0974309,39.5832652 L23.0974309,33.9266723 C23.0974309,33.9266723 24.7832997,34.802021 30.4488376,34.802021 C36.114906,34.802021 38.5259425,33.9266723 38.5259425,33.9266723 L38.6219595,40.5153296 L38.6219595,40.5153296 Z" id="Stroke-2"></path>
                    <path d="M25.6506363,6.40458777 L34.7743803,6.40458777" id="Stroke-3" stroke-linecap="round"></path>
                </g>
                <g id="Imported-Layers-Copy" transform="translate(20.000000, 0.000000)" sketch:type="MSShapeGroup">
                    <path d="M12.0097398,8.03332105 C11.5351194,7.68658346 11.0390714,7.43711905 10.5430235,7.32871868 L10.5430235,9.40950315 C12.1818746,9.82156811 12.8829128,10.4723292 12.8829128,11.6317106 L12.8829128,11.6532471 C12.8829128,12.8348829 11.9554567,13.6263491 10.5862357,13.756286 L10.5862357,14.8183942 L9.64806577,14.8183942 L9.64806577,13.7343905 C8.70989583,13.6263491 7.8252948,13.2469478 7.10282895,12.6615141 L7.79315346,11.6643743 C8.40776726,12.1737124 8.9898826,12.4989135 9.69092088,12.6180821 L9.69092088,10.4830975 C8.11670959,10.0710325 7.38317284,9.48595771 7.38317284,8.26089002 L7.38317284,8.23935353 C7.38317284,7.07925427 8.29991522,6.28814698 9.64806577,6.16897837 L9.64806577,5.54011268 L10.5862357,5.54011268 L10.5862357,6.19087381 C11.3626276,6.28814698 12.0097398,6.56991614 12.6132827,7.01464478 L12.0097398,8.03332105 L12.0097398,8.03332105 Z M9.69092088,9.18229312 L9.69092088,7.26375025 C9.00059638,7.32871868 8.65561269,7.68658346 8.65561269,8.16325791 L8.65561269,8.17402616 C8.65561269,8.62952305 8.860603,8.92206046 9.69092088,9.18229312 L9.69092088,9.18229312 Z M10.5430235,10.688771 L10.5430235,12.6615141 C11.2329908,12.5854184 11.6108301,12.249808 11.6108301,11.7293427 L11.6108301,11.7078062 C11.6108301,11.2307728 11.3733413,10.9378765 10.5430235,10.688771 L10.5430235,10.688771 Z" id="Fill-1" stroke-width="0.4" fill="#B2C1C4"></path>
                    <path d="M20.0322177,10.1241559 C20.0322177,15.673393 15.5563579,20.1720081 10.0351903,20.1720081 C4.51437989,20.1720081 0.0388771855,15.673393 0.0388771855,10.1241559 C0.0388771855,4.57527765 4.51437989,0.0770214974 10.0351903,0.0770214974 C15.5563579,0.0770214974 20.0322177,4.57527765 20.0322177,10.1241559 L20.0322177,10.1241559 Z" id="Stroke-2" stroke-width="1.5" stroke-linecap="round" stroke-linejoin="round"></path>
                </g>
            </g>
        </g>
    </g>
</svg>